<?xml version="1.0" encoding="UTF-8" standalone="no"?>
<!-- Created with Inkscape (http://www.inkscape.org/) -->
<svg xmlns:dc="http://purl.org/dc/elements/1.1/" xmlns:cc="http://creativecommons.org/ns#" xmlns:rdf="http://www.w3.org/1999/02/22-rdf-syntax-ns#" xmlns:svg="http://www.w3.org/2000/svg" xmlns="http://www.w3.org/2000/svg" xmlns:sodipodi="http://sodipodi.sourceforge.net/DTD/sodipodi-0.dtd" xmlns:inkscape="http://www.inkscape.org/namespaces/inkscape" width="236.84074" height="64.97612" viewBox="0 0 62.664111 17.191598" version="1.1" id="svg924" inkscape:version="0.92.0 r15299" sodipodi:docname="atradius.svg">
  <defs id="defs918"/>
  <sodipodi:namedview id="base" pagecolor="#ffffff" bordercolor="#666666" borderopacity="1.0" inkscape:pageopacity="0.0" inkscape:pageshadow="2" inkscape:zoom="3.81961" inkscape:cx="117.42037" inkscape:cy="31.488061" inkscape:document-units="mm" inkscape:current-layer="layer1" showgrid="false" fit-margin-top="0" fit-margin-left="0" fit-margin-right="0" fit-margin-bottom="0" units="px" inkscape:window-width="1280" inkscape:window-height="744" inkscape:window-x="-4" inkscape:window-y="-4" inkscape:window-maximized="1"/>
  <metadata id="metadata921">
    <rdf:RDF>
      <cc:Work rdf:about="">
        <dc:format>image/svg+xml</dc:format>
        <dc:type rdf:resource="http://purl.org/dc/dcmitype/StillImage"/>
        <dc:title/>
      </cc:Work>
    </rdf:RDF>
  </metadata>
  <g inkscape:label="Layer 1" inkscape:groupmode="layer" id="layer1" transform="translate(18.594253,-139.97296)">
    <g transform="translate(-264.18101,-10.476715)" id="g828">
      <path d="m 266.85677,160.32401 h -2.7492 l -0.30268,0.96908 0.19367,0.19368 h 0.5207 v 1.0294 h -2.88219 v -1.0294 h 0.42404 l 0.21766,-0.21802 2.56752,-7.25452 h 1.71979 l 2.68852,7.27886 0.20602,0.19368 h 0.42369 v 1.0294 h -3.30623 v -1.0294 h 0.43638 l 0.18133,-0.19368 z m -2.38584,-1.15041 h 1.97415 l -1.02941,-2.95486 z" style="fill:#7b7979;fill-opacity:1;fill-rule:nonzero;stroke:none;stroke-width:0.35277778" id="path253" inkscape:connector-curvature="0"/>
      <path d="m 272.04056,157.12685 v 4.20229 l 0.21802,0.21837 h 1.17475 v 0.96873 c 0,0 -0.77506,0.121 -1.63513,0.121 -1.05339,0 -1.59879,-0.3877 -1.59879,-1.50178 v -4.00861 h -0.75071 v -1.00506 h 0.53305 l 0.21766,-0.21802 0.69074,-1.50178 h 1.15041 v 1.7198 h 1.35643 v 1.00506 z" style="fill:#7b7979;fill-opacity:1;fill-rule:nonzero;stroke:none;stroke-width:0.35277778" id="path265" inkscape:connector-curvature="0"/>
      <path d="m 276.53375,161.54737 h 0.67804 v 0.96873 h -3.47557 v -0.96873 h 0.5327 l 0.21801,-0.21802 v -3.98462 l -0.21801,-0.21802 h -0.5327 v -1.02905 h 1.92546 c 0.48437,0 0.55704,0.27834 0.55704,0.53269 v 0.32703 h 0.0363 c 0.16968,-0.23001 0.81138,-0.98108 1.76812,-0.98108 0.24236,0 0.48471,0.0363 0.48471,0.0363 v 2.53118 h -1.11442 v -0.84772 l -0.20567,-0.19368 c -0.37571,0.0727 -0.69039,0.23001 -0.86007,0.32703 v 3.4999 z" style="fill:#7b7979;fill-opacity:1;fill-rule:nonzero;stroke:none;stroke-width:0.35277778" id="path269" inkscape:connector-curvature="0"/>
      <path d="m 284.82991,162.5161 h -1.90147 c -0.48437,0 -0.55704,-0.27834 -0.55704,-0.53305 v -0.23001 h -0.0607 c -0.20567,0.26635 -0.81138,0.88442 -1.69545,0.88442 -1.3081,0 -1.86513,-0.82374 -1.86513,-1.85315 0,-1.24742 0.83573,-1.9378 2.15582,-1.9378 h 1.35643 v -0.5207 c 0,-0.70238 -0.0363,-1.21109 -1.07773,-1.21109 -0.15769,0 -0.33902,0.012 -0.53305,0.0363 l -0.18168,0.18168 v 0.81139 h -1.17475 v -1.78012 c 0.54504,-0.15769 1.4291,-0.3877 2.51919,-0.3877 1.73178,0 2.26448,0.93239 2.26448,2.05881 v 3.29424 l 0.21801,0.21801 h 0.53305 z m -2.56752,-1.59879 v -1.0414 h -0.85972 c -0.58137,0 -0.83573,0.24236 -0.83573,0.70273 0,0.43569 0.19368,0.69004 0.76306,0.69004 0.3997,0 0.75071,-0.21802 0.93239,-0.35137" style="fill:#7b7979;fill-opacity:1;fill-rule:nonzero;stroke:none;stroke-width:0.35277778" id="path273" inkscape:connector-curvature="0"/>
      <path d="m 289.85604,162.5161 c -0.48436,0 -0.55704,-0.27834 -0.55704,-0.53305 v -0.23001 h -0.0363 c -0.35137,0.48472 -0.9204,0.89641 -1.76812,0.89641 -1.29611,0 -2.30117,-1.10208 -2.30117,-3.2579 0,-2.15583 1.17475,-3.41524 2.56751,-3.41524 0.59338,0 1.09009,0.29068 1.42911,0.6297 v -1.68345 l -0.21802,-0.21767 h -0.53305 v -1.0294 h 2.03482 c 0.48437,0 0.55704,0.27834 0.55704,0.53269 v 7.12118 l 0.21802,0.21801 h 0.53269 v 0.96873 z M 289.19,160.97799 v -3.29424 c -0.29069,-0.26635 -0.61772,-0.39934 -0.98108,-0.39934 -0.72672,0 -1.09008,0.60536 -1.09008,2.0828 0,1.51377 0.36336,1.92581 1.11442,1.92581 0.25436,0 0.61772,-0.0727 0.95674,-0.31503" style="fill:#7b7979;fill-opacity:1;fill-rule:nonzero;stroke:none;stroke-width:0.35277778" id="path277" inkscape:connector-curvature="0"/>
      <path d="m 294.17972,156.09752 c 0.48436,0 0.55704,0.27834 0.55704,0.53269 v 4.699 l 0.20602,0.21802 h 0.54504 v 0.96873 h -3.34257 v -0.96873 h 0.5327 l 0.21801,-0.21802 v -3.98427 l -0.21801,-0.21801 h -0.5327 v -1.02941 z m -0.47237,-2.60385 c 0.69039,0 1.02941,0.37535 1.02941,0.96873 0,0.59337 -0.33902,0.96908 -1.02941,0.96908 -0.69003,0 -1.0294,-0.37571 -1.0294,-0.96908 0,-0.59338 0.33937,-0.96873 1.0294,-0.96873" style="fill:#7b7979;fill-opacity:1;fill-rule:nonzero;stroke:none;stroke-width:0.35277778" id="path281" inkscape:connector-curvature="0"/>
      <path d="m 301.31303,156.09752 c 0.48436,0 0.55704,0.27834 0.55704,0.53269 v 4.699 l 0.21801,0.21802 h 0.5327 v 0.96873 h -1.92546 c -0.48437,0 -0.55704,-0.27834 -0.55704,-0.5327 v -0.21801 h -0.0363 c -0.23001,0.26634 -0.82338,0.87206 -1.74378,0.87206 -1.44145,0 -1.86513,-0.87206 -1.86513,-1.9378 v -3.35457 l -0.21802,-0.21801 H 295.742 v -1.02941 h 2.03483 c 0.48436,0 0.55703,0.31468 0.55703,0.59337 v 3.71793 c 0,0.36336 0.0363,0.86007 0.73872,0.86007 0.42368,0 0.76306,-0.19403 0.95673,-0.32703 v -3.59692 l -0.21801,-0.21801 h -0.5327 v -1.02941 z" style="fill:#7b7979;fill-opacity:1;fill-rule:nonzero;stroke:none;stroke-width:0.35277778" id="path285" inkscape:connector-curvature="0"/>
      <path d="m 305.26143,162.63735 c -1.32009,0 -2.14348,-0.27869 -2.14348,-0.27869 v -1.80446 h 1.07774 v 0.71473 l 0.20567,0.21766 c 0.24236,0.0367 0.5087,0.0607 0.83573,0.0607 0.65405,0 0.94474,-0.33902 0.94474,-0.67804 0,-0.43604 -0.14535,-0.58173 -1.15041,-0.86007 -1.51412,-0.42369 -1.90147,-1.17475 -1.90147,-2.05882 0,-1.1504 1.0294,-1.97414 2.68852,-1.97414 1.0414,0 1.90147,0.20602 1.90147,0.20602 v 1.75613 h -1.07809 v -0.62971 l -0.20567,-0.19403 c -0.19368,-0.0363 -0.41169,-0.0603 -0.64206,-0.0603 -0.59337,0 -0.94438,0.242 -0.94438,0.61736 0,0.31503 0.0847,0.53305 0.95673,0.7874 1.53776,0.46002 2.17982,0.9204 2.17982,2.02248 0,1.38041 -1.16276,2.15582 -2.72486,2.15582" style="fill:#7b7979;fill-opacity:1;fill-rule:nonzero;stroke:none;stroke-width:0.35277778" id="path289" inkscape:connector-curvature="0"/>
      <path d="m 252.03978,158.74727 c 1.64183,1.59209 2.28141,4.27249 2.56505,5.33012 0.16439,0.61842 0.80151,0.98566 1.41957,0.81985 0.61807,-0.16615 0.98602,-0.80186 0.81986,-1.42028 -0.28328,-1.05798 -1.06997,-3.69782 -0.44415,-5.89809 0.55916,-2.21791 2.56011,-4.11162 3.3334,-4.88491 0.45367,-0.45332 0.45367,-1.18781 0,-1.64077 -0.45261,-0.45191 -1.1871,-0.45191 -1.63936,0 -0.77399,0.77434 -2.66665,2.77565 -4.88526,3.33481 -2.20063,0.62512 -4.84047,-0.16193 -5.89774,-0.44486 -0.61878,-0.1658 -1.25448,0.20144 -1.41958,0.81951 -0.16686,0.61912 0.20073,1.25518 0.81915,1.42063 1.05763,0.28293 3.73662,0.92181 5.32906,2.56399" style="fill:#ed1443;fill-opacity:1;fill-rule:nonzero;stroke:none;stroke-width:0.35277778" id="path293" inkscape:connector-curvature="0"/>
      <path d="m 261.88172,166.63993 h 0.20955 l 0.0476,-0.0444 v -1.80411 l -0.0476,-0.0445 h -0.20955 v -0.1651 h 0.54292 l 0.65441,1.18781 0.66075,-1.18781 h 0.52035 v 0.1651 h -0.21237 l -0.0444,0.0445 v 1.80411 l 0.0413,0.0444 h 0.21555 v 0.1651 h -0.80328 v -0.1651 h 0.20991 l 0.0473,-0.0444 v -1.54376 l -0.58103,1.02588 h -0.1972 l -0.5588,-1.00048 v 1.51836 l 0.0444,0.0444 h 0.21272 v 0.1651 h -0.75247 z" style="fill:#7b7979;fill-opacity:1;fill-rule:nonzero;stroke:none;stroke-width:0.35277778" id="path297" inkscape:connector-curvature="0"/>
      <path d="m 266.13022,166.80496 h -0.39723 c -0.10477,0 -0.13335,-0.054 -0.13335,-0.127 v -0.0921 h -0.009 c -0.0892,0.10477 -0.24483,0.25082 -0.49248,0.25082 -0.32738,0 -0.48895,-0.21625 -0.48895,-0.47978 0,-0.3175 0.2286,-0.48895 0.52388,-0.48895 h 0.45085 v -0.18097 c 0,-0.21908 -0.0505,-0.40041 -0.35243,-0.40041 -0.0984,0 -0.19367,0.0254 -0.26987,0.048 l -0.0445,0.0413 v 0.26352 h -0.20356 v -0.4258 c 0.13335,-0.0476 0.33373,-0.11077 0.59726,-0.11077 0.42898,0 0.56233,0.24447 0.56233,0.53975 v 0.95603 l 0.0441,0.0508 h 0.21308 z m -0.54645,-0.3877 v -0.36195 h -0.37783 c -0.18097,0 -0.3048,0.073 -0.3048,0.2921 0,0.16228 0.0571,0.26705 0.29528,0.26705 0.13652,0 0.27305,-0.0825 0.38735,-0.1972" style="fill:#7b7979;fill-opacity:1;fill-rule:nonzero;stroke:none;stroke-width:0.35277778" id="path309" inkscape:connector-curvature="0"/>
      <path d="m 266.37103,166.80496 v -0.15557 h 0.20955 l 0.0444,-0.0476 v -1.25448 l -0.0444,-0.048 h -0.20955 v -0.16474 h 0.3937 c 0.10477,0 0.13652,0.054 0.13652,0.127 v 0.0889 h 0.006 c 0.0953,-0.10478 0.27658,-0.24765 0.51753,-0.24765 0.3623,0 0.4893,0.22824 0.4893,0.508 v 0.99095 l 0.0476,0.0476 h 0.20955 v 0.15557 h -0.78105 v -0.15557 h 0.1905 l 0.0445,-0.0476 v -0.9465 c 0,-0.16546 -0.0445,-0.32738 -0.27341,-0.32738 -0.16474,0 -0.30127,0.0603 -0.43815,0.20355 v 1.07033 l 0.0476,0.0476 h 0.19085 v 0.15557 z" style="fill:#7b7979;fill-opacity:1;fill-rule:nonzero;stroke:none;stroke-width:0.35277778" id="path313" inkscape:connector-curvature="0"/>
      <path d="m 269.97529,166.80496 h -0.39723 c -0.10477,0 -0.13335,-0.054 -0.13335,-0.127 v -0.0921 h -0.009 c -0.0892,0.10477 -0.24483,0.25082 -0.49248,0.25082 -0.32738,0 -0.48895,-0.21625 -0.48895,-0.47978 0,-0.3175 0.2286,-0.48895 0.52388,-0.48895 h 0.45085 v -0.18097 c 0,-0.21908 -0.0504,-0.40041 -0.35243,-0.40041 -0.0984,0 -0.19403,0.0254 -0.27023,0.048 l -0.0444,0.0413 v 0.26352 h -0.2032 v -0.4258 c 0.13335,-0.0476 0.33373,-0.11077 0.59726,-0.11077 0.42862,0 0.56233,0.24447 0.56233,0.53975 v 0.95603 l 0.0441,0.0508 h 0.21308 z m -0.54645,-0.3877 v -0.36195 h -0.37783 c -0.18097,0 -0.3048,0.073 -0.3048,0.2921 0,0.16228 0.0571,0.26705 0.29528,0.26705 0.13652,0 0.27305,-0.0825 0.38735,-0.1972" style="fill:#7b7979;fill-opacity:1;fill-rule:nonzero;stroke:none;stroke-width:0.35277778" id="path317" inkscape:connector-curvature="0"/>
      <path d="m 270.92751,166.17931 c -0.1016,0 -0.20002,-0.0127 -0.28293,-0.0444 -0.079,0.0381 -0.12347,0.0921 -0.12347,0.15557 0,0.0826 0.0504,0.13335 0.20003,0.13335 h 0.49847 c 0.30198,0 0.51788,0.13653 0.51788,0.39406 0,0.3683 -0.38136,0.5588 -0.84526,0.5588 -0.42545,0 -0.68262,-0.0984 -0.68262,-0.3556 0,-0.19721 0.14287,-0.30198 0.26388,-0.35913 -0.127,-0.0445 -0.20673,-0.14288 -0.20673,-0.26952 0,-0.12418 0.0826,-0.24483 0.24165,-0.3242 -0.13335,-0.0889 -0.21625,-0.2286 -0.21625,-0.42863 0,-0.36865 0.28928,-0.53693 0.63535,-0.53693 0.0857,0 0.16827,0.0127 0.24447,0.0317 h 0.56198 v 0.1651 h -0.2794 l -0.006,0.006 c 0.0759,0.0826 0.1203,0.19368 0.1203,0.33373 0,0.36513 -0.29845,0.53975 -0.64135,0.53975 m -0.28293,0.50518 c -0.0603,0.0286 -0.1778,0.1143 -0.1778,0.2794 0,0.17145 0.13335,0.24765 0.44486,0.24765 0.30797,0 0.55562,-0.0889 0.55562,-0.32068 0,-0.14005 -0.0889,-0.20637 -0.3048,-0.20637 z m 0.28293,-1.42311 c -0.2099,0 -0.36195,0.12383 -0.36195,0.37818 0,0.25682 0.15205,0.381 0.36195,0.381 0.20955,0 0.36512,-0.12418 0.36512,-0.381 0,-0.25435 -0.15557,-0.37818 -0.36512,-0.37818" style="fill:#7b7979;fill-opacity:1;fill-rule:nonzero;stroke:none;stroke-width:0.35277778" id="path321" inkscape:connector-curvature="0"/>
      <path d="m 272.45436,165.13442 c 0.1016,0 0.13017,0.054 0.13017,0.127 v 1.3402 l 0.0445,0.0476 h 0.21273 v 0.15557 h -0.80363 v -0.15557 h 0.21308 l 0.0444,-0.0476 v -1.25412 l -0.0444,-0.048 h -0.21308 v -0.1651 z m -0.0444,-0.64805 c 0.11395,0 0.1778,0.067 0.1778,0.16863 0,0.1016 -0.0639,0.17145 -0.1778,0.17145 -0.11747,0 -0.17815,-0.0699 -0.17815,-0.17145 0,-0.1016 0.0607,-0.16863 0.17815,-0.16863" style="fill:#7b7979;fill-opacity:1;fill-rule:nonzero;stroke:none;stroke-width:0.35277778" id="path325" inkscape:connector-curvature="0"/>
      <path d="m 273.1148,166.80496 v -0.15557 h 0.20955 l 0.0445,-0.0476 v -1.25448 l -0.0445,-0.048 h -0.20955 v -0.16474 h 0.3937 c 0.10477,0 0.13652,0.054 0.13652,0.127 v 0.0889 h 0.006 c 0.0953,-0.10478 0.27658,-0.24765 0.51753,-0.24765 0.3623,0 0.4893,0.22824 0.4893,0.508 v 0.99095 l 0.0476,0.0476 h 0.20955 v 0.15557 h -0.78105 v -0.15557 h 0.1905 l 0.0444,-0.0476 v -0.9465 c 0,-0.16546 -0.0444,-0.32738 -0.27341,-0.32738 -0.1651,0 -0.30127,0.0603 -0.43815,0.20355 v 1.07033 l 0.0476,0.0476 h 0.19085 v 0.15557 z" style="fill:#7b7979;fill-opacity:1;fill-rule:nonzero;stroke:none;stroke-width:0.35277778" id="path329" inkscape:connector-curvature="0"/>
      <path d="m 275.87708,166.17931 c -0.1016,0 -0.20002,-0.0127 -0.28293,-0.0444 -0.079,0.0381 -0.12347,0.0921 -0.12347,0.15557 0,0.0826 0.0505,0.13335 0.20003,0.13335 h 0.49847 c 0.30198,0 0.51788,0.13653 0.51788,0.39406 0,0.3683 -0.38136,0.5588 -0.84526,0.5588 -0.42545,0 -0.68262,-0.0984 -0.68262,-0.3556 0,-0.19721 0.14287,-0.30198 0.26352,-0.35913 -0.12664,-0.0445 -0.20637,-0.14288 -0.20637,-0.26952 0,-0.12418 0.0825,-0.24483 0.2413,-0.3242 -0.133,-0.0889 -0.2159,-0.2286 -0.2159,-0.42863 0,-0.36865 0.28892,-0.53693 0.63535,-0.53693 0.0857,0 0.16827,0.0127 0.24447,0.0317 h 0.56198 v 0.1651 h -0.2794 l -0.006,0.006 c 0.0759,0.0826 0.1203,0.19368 0.1203,0.33373 0,0.36513 -0.29845,0.53975 -0.64135,0.53975 m -0.28293,0.50518 c -0.0603,0.0286 -0.1778,0.1143 -0.1778,0.2794 0,0.17145 0.13335,0.24765 0.44486,0.24765 0.30797,0 0.55562,-0.0889 0.55562,-0.32068 0,-0.14005 -0.0889,-0.20637 -0.3048,-0.20637 z m 0.28293,-1.42311 c -0.2099,0 -0.36195,0.12383 -0.36195,0.37818 0,0.25682 0.15205,0.381 0.36195,0.381 0.20955,0 0.36512,-0.12418 0.36512,-0.381 0,-0.25435 -0.15557,-0.37818 -0.36512,-0.37818" style="fill:#7b7979;fill-opacity:1;fill-rule:nonzero;stroke:none;stroke-width:0.35277778" id="path333" inkscape:connector-curvature="0"/>
      <path d="m 278.4137,166.64924 h 0.24447 v 0.15557 h -0.83502 v -0.15557 h 0.20955 l 0.0445,-0.0476 v -1.25413 l -0.0445,-0.048 h -0.20955 v -0.1651 h 0.3937 c 0.10478,0 0.13653,0.054 0.13653,0.127 v 0.0984 h 0.007 c 0.0631,-0.073 0.24447,-0.25718 0.51117,-0.25718 0.0505,0 0.0857,0.006 0.1143,0.009 v 0.52459 h -0.18133 v -0.23848 l -0.0473,-0.0445 c -0.1778,0.0127 -0.31468,0.10477 -0.39087,0.18732 v 1.06081 z" style="fill:#7b7979;fill-opacity:1;fill-rule:nonzero;stroke:none;stroke-width:0.35277778" id="path337" inkscape:connector-curvature="0"/>
      <path d="m 279.68701,165.13442 c 0.1016,0 0.13017,0.054 0.13017,0.127 v 1.3402 l 0.0444,0.0476 h 0.21273 v 0.15557 h -0.80363 v -0.15557 h 0.21308 l 0.0444,-0.0476 v -1.25412 l -0.0444,-0.048 h -0.21308 v -0.1651 z m -0.0444,-0.64805 c 0.11395,0 0.1778,0.067 0.1778,0.16863 0,0.1016 -0.0639,0.17145 -0.1778,0.17145 -0.11747,0 -0.17815,-0.0699 -0.17815,-0.17145 0,-0.1016 0.0607,-0.16863 0.17815,-0.16863" style="fill:#7b7979;fill-opacity:1;fill-rule:nonzero;stroke:none;stroke-width:0.35277778" id="path341" inkscape:connector-curvature="0"/>
      <path d="m 280.91895,166.83664 c -0.32067,0 -0.52105,-0.0699 -0.52105,-0.0699 v -0.39687 h 0.18768 v 0.2159 l 0.0413,0.0444 c 0.0699,0.0127 0.16828,0.0254 0.3048,0.0254 0.22225,0 0.3683,-0.10478 0.3683,-0.28575 0,-0.15593 -0.0921,-0.23495 -0.39052,-0.30798 -0.39406,-0.0988 -0.49848,-0.27023 -0.49848,-0.49248 0,-0.2794 0.23178,-0.46672 0.62865,-0.46672 0.26705,0 0.46708,0.0536 0.46708,0.0536 v 0.39405 h -0.18733 v -0.21272 l -0.0385,-0.0349 c -0.0571,-0.0127 -0.14605,-0.0254 -0.25365,-0.0254 -0.22577,0 -0.35277,0.1016 -0.35277,0.25083 0,0.13652 0.0571,0.21907 0.35277,0.2921 0.3937,0.0984 0.54575,0.23848 0.54575,0.49248 0,0.33337 -0.27623,0.52387 -0.65405,0.52387" style="fill:#7b7979;fill-opacity:1;fill-rule:nonzero;stroke:none;stroke-width:0.35277778" id="path345" inkscape:connector-curvature="0"/>
      <path d="m 282.89369,165.82339 0.5461,0.78775 0.048,0.0381 h 0.17145 v 0.15558 h -0.77823 v -0.15558 h 0.20002 l 0.0222,-0.0286 -0.43815,-0.6604 h -0.248 v 0.64135 l 0.0445,0.0476 h 0.1905 v 0.15558 h -0.78105 v -0.15558 h 0.20955 l 0.0476,-0.0476 v -1.90535 l -0.0476,-0.0445 h -0.20955 v -0.16546 h 0.41275 c 0.10477,0 0.13335,0.054 0.13335,0.12418 v 1.2005 h 0.248 l 0.47942,-0.49247 -0.0127,-0.019 h -0.18415 v -0.1651 h 0.67628 v 0.1651 h -0.1965 l -0.0543,0.0381 z" style="fill:#7b7979;fill-opacity:1;fill-rule:nonzero;stroke:none;stroke-width:0.35277778" id="path349" inkscape:connector-curvature="0"/>
      <path d="m 284.16976,166.48421 c 0.11747,0 0.18415,0.0699 0.18415,0.17462 0,0.0508 -0.0254,0.0952 -0.0476,0.13335 l -0.20319,0.38771 c -0.003,0 -0.13335,-0.067 -0.13335,-0.067 l 0.127,-0.23813 -0.019,-0.054 c -0.0635,-0.0349 -0.0921,-0.0889 -0.0921,-0.16193 0,-0.10477 0.0635,-0.17462 0.18415,-0.17462" style="fill:#7b7979;fill-opacity:1;fill-rule:nonzero;stroke:none;stroke-width:0.35277778" id="path353" inkscape:connector-curvature="0"/>
      <path d="m 286.91963,166.04599 h -1.00647 c 0.0187,0.42227 0.22189,0.60007 0.54927,0.60007 0.1778,0 0.32703,-0.0445 0.41275,-0.0825 v 0.16546 c -0.10795,0.06 -0.2667,0.10759 -0.50518,0.10759 -0.42545,0 -0.75565,-0.254 -0.75565,-0.84772 0,-0.6036 0.32421,-0.88618 0.71473,-0.88618 0.34925,0 0.635,0.23813 0.635,0.68298 v 0.21908 z m -1.00647,-0.18732 h 0.75882 v -0.0924 c 0,-0.33302 -0.14605,-0.4826 -0.34925,-0.4826 -0.22895,0 -0.38417,0.18732 -0.40957,0.57503" style="fill:#7b7979;fill-opacity:1;fill-rule:nonzero;stroke:none;stroke-width:0.35277778" id="path357" inkscape:connector-curvature="0"/>
      <path d="m 287.2941,166.80496 v -0.15557 h 0.20955 l 0.0444,-0.0476 v -1.25448 l -0.0444,-0.048 h -0.20955 v -0.16474 h 0.3937 c 0.10477,0 0.13652,0.054 0.13652,0.127 v 0.0889 h 0.006 c 0.0953,-0.10478 0.27658,-0.24765 0.51753,-0.24765 0.3623,0 0.4893,0.22824 0.4893,0.508 v 0.99095 l 0.0476,0.0476 h 0.20955 v 0.15557 h -0.78105 v -0.15557 h 0.1905 l 0.0445,-0.0476 v -0.9465 c 0,-0.16546 -0.0445,-0.32738 -0.27341,-0.32738 -0.1651,0 -0.30127,0.0603 -0.43815,0.20355 v 1.07033 l 0.0476,0.0476 h 0.19085 v 0.15557 z" style="fill:#7b7979;fill-opacity:1;fill-rule:nonzero;stroke:none;stroke-width:0.35277778" id="path361" inkscape:connector-curvature="0"/>
      <path d="m 290.89804,166.80496 h -0.39723 c -0.10477,0 -0.13335,-0.054 -0.13335,-0.127 v -0.0921 h -0.009 c -0.0892,0.10477 -0.24483,0.25082 -0.49248,0.25082 -0.32738,0 -0.48895,-0.21625 -0.48895,-0.47978 0,-0.3175 0.2286,-0.48895 0.52388,-0.48895 h 0.45085 v -0.18097 c 0,-0.21908 -0.0505,-0.40041 -0.35243,-0.40041 -0.0984,0 -0.19403,0.0254 -0.27023,0.048 l -0.0441,0.0413 v 0.26352 h -0.20356 v -0.4258 c 0.13335,-0.0476 0.33373,-0.11077 0.59726,-0.11077 0.42898,0 0.56233,0.24447 0.56233,0.53975 v 0.95603 l 0.0441,0.0508 h 0.21308 z m -0.54645,-0.3877 v -0.36195 h -0.37783 c -0.18097,0 -0.3048,0.073 -0.3048,0.2921 0,0.16228 0.0571,0.26705 0.29528,0.26705 0.13652,0 0.27305,-0.0825 0.38735,-0.1972" style="fill:#7b7979;fill-opacity:1;fill-rule:nonzero;stroke:none;stroke-width:0.35277778" id="path365" inkscape:connector-curvature="0"/>
      <path d="m 291.51368,164.4864 c 0.10477,0 0.13335,0.054 0.13335,0.12418 v 0.73025 c 0.0921,-0.10795 0.254,-0.23813 0.4572,-0.23813 0.34008,0 0.61948,0.26988 0.61948,0.85443 0,0.56515 -0.2921,0.87948 -0.68933,0.87948 -0.18098,0 -0.30515,-0.0825 -0.39688,-0.16793 h -0.006 v 0.009 c 0,0.073 -0.0317,0.127 -0.1337,0.127 h -0.39687 v -0.15558 h 0.2099 l 0.0476,-0.0476 v -1.90536 l -0.0476,-0.0445 h -0.2099 v -0.16545 z m 0.13335,1.04175 v 0.93063 c 0.0699,0.0794 0.1905,0.18415 0.36195,0.18733 0.25082,0.003 0.41275,-0.2159 0.41275,-0.6858 0,-0.44486 -0.13935,-0.63853 -0.39053,-0.63853 -0.1397,0 -0.26352,0.0699 -0.38417,0.20637" style="fill:#7b7979;fill-opacity:1;fill-rule:nonzero;stroke:none;stroke-width:0.35277778" id="path369" inkscape:connector-curvature="0"/>
      <path d="m 293.44708,164.4864 c 0.10477,0 0.13335,0.054 0.13335,0.12418 v 1.99108 l 0.0445,0.0476 h 0.21272 v 0.15558 h -0.80009 v -0.15558 h 0.20955 l 0.0473,-0.0476 v -1.90536 l -0.0473,-0.0445 h -0.20955 v -0.16545 z" style="fill:#7b7979;fill-opacity:1;fill-rule:nonzero;stroke:none;stroke-width:0.35277778" id="path373" inkscape:connector-curvature="0"/>
      <path d="m 294.52982,165.13442 c 0.1016,0 0.13017,0.054 0.13017,0.127 v 1.3402 l 0.0444,0.0476 h 0.21273 v 0.15557 h -0.80363 v -0.15557 h 0.21308 l 0.0444,-0.0476 v -1.25412 l -0.0444,-0.048 h -0.21308 v -0.1651 z m -0.0444,-0.64805 c 0.11395,0 0.1778,0.067 0.1778,0.16863 0,0.1016 -0.0639,0.17145 -0.1778,0.17145 -0.11747,0 -0.17815,-0.0699 -0.17815,-0.17145 0,-0.1016 0.0607,-0.16863 0.17815,-0.16863" style="fill:#7b7979;fill-opacity:1;fill-rule:nonzero;stroke:none;stroke-width:0.35277778" id="path377" inkscape:connector-curvature="0"/>
      <path d="m 295.19026,166.80496 v -0.15557 h 0.20955 l 0.0444,-0.0476 v -1.25448 l -0.0444,-0.048 h -0.20955 v -0.16474 h 0.3937 c 0.10477,0 0.13652,0.054 0.13652,0.127 v 0.0889 h 0.006 c 0.0953,-0.10478 0.27658,-0.24765 0.51753,-0.24765 0.3623,0 0.4893,0.22824 0.4893,0.508 v 0.99095 l 0.0476,0.0476 h 0.20955 v 0.15557 h -0.78105 v -0.15557 h 0.1905 l 0.0445,-0.0476 v -0.9465 c 0,-0.16546 -0.0445,-0.32738 -0.27341,-0.32738 -0.1651,0 -0.30127,0.0603 -0.43815,0.20355 v 1.07033 l 0.0476,0.0476 h 0.19085 v 0.15557 z" style="fill:#7b7979;fill-opacity:1;fill-rule:nonzero;stroke:none;stroke-width:0.35277778" id="path381" inkscape:connector-curvature="0"/>
      <path d="m 297.95254,166.17931 c -0.1016,0 -0.20002,-0.0127 -0.28293,-0.0444 -0.079,0.0381 -0.12347,0.0921 -0.12347,0.15557 0,0.0826 0.0505,0.13335 0.20003,0.13335 h 0.49847 c 0.30198,0 0.51788,0.13653 0.51788,0.39406 0,0.3683 -0.38136,0.5588 -0.84526,0.5588 -0.42545,0 -0.68262,-0.0984 -0.68262,-0.3556 0,-0.19721 0.14287,-0.30198 0.26352,-0.35913 -0.12664,-0.0445 -0.20637,-0.14288 -0.20637,-0.26952 0,-0.12418 0.0826,-0.24483 0.24165,-0.3242 -0.13335,-0.0889 -0.21625,-0.2286 -0.21625,-0.42863 0,-0.36865 0.28928,-0.53693 0.63535,-0.53693 0.0857,0 0.16827,0.0127 0.24447,0.0317 h 0.56198 v 0.1651 h -0.2794 l -0.006,0.006 c 0.0759,0.0826 0.1203,0.19368 0.1203,0.33373 0,0.36513 -0.29845,0.53975 -0.64135,0.53975 m -0.28293,0.50518 c -0.0603,0.0286 -0.1778,0.1143 -0.1778,0.2794 0,0.17145 0.13335,0.24765 0.44486,0.24765 0.30797,0 0.55562,-0.0889 0.55562,-0.32068 0,-0.14005 -0.0889,-0.20637 -0.3048,-0.20637 z m 0.28293,-1.42311 c -0.2099,0 -0.36195,0.12383 -0.36195,0.37818 0,0.25682 0.15205,0.381 0.36195,0.381 0.20955,0 0.36512,-0.12418 0.36512,-0.381 0,-0.25435 -0.15557,-0.37818 -0.36512,-0.37818" style="fill:#7b7979;fill-opacity:1;fill-rule:nonzero;stroke:none;stroke-width:0.35277778" id="path385" inkscape:connector-curvature="0"/>
      <path d="m 300.39719,165.29945 v 1.3021 l 0.0444,0.0476 h 0.3937 v 0.15593 c 0,0 -0.3175,0.0314 -0.44132,0.0314 -0.18733,0 -0.28575,-0.073 -0.28575,-0.2794 v -1.25765 h -0.23213 v -0.15875 h 0.18768 l 0.0444,-0.0445 0.10795,-0.41945 h 0.18097 v 0.4639 h 0.37183 v 0.15875 z" style="fill:#7b7979;fill-opacity:1;fill-rule:nonzero;stroke:none;stroke-width:0.35277778" id="path389" inkscape:connector-curvature="0"/>
      <path d="m 301.66394,166.64924 h 0.24447 v 0.15557 h -0.83502 v -0.15557 h 0.20955 l 0.0444,-0.0476 v -1.25413 l -0.0444,-0.048 h -0.20955 v -0.1651 h 0.3937 c 0.10478,0 0.13653,0.054 0.13653,0.127 v 0.0984 h 0.007 c 0.0631,-0.073 0.24447,-0.25718 0.51117,-0.25718 0.0505,0 0.0857,0.006 0.1143,0.009 v 0.52459 h -0.18133 v -0.23848 l -0.0473,-0.0445 c -0.1778,0.0127 -0.31468,0.10477 -0.39087,0.18732 v 1.06081 z" style="fill:#7b7979;fill-opacity:1;fill-rule:nonzero;stroke:none;stroke-width:0.35277778" id="path393" inkscape:connector-curvature="0"/>
      <path d="m 304.05831,166.80496 h -0.39723 c -0.10477,0 -0.13335,-0.054 -0.13335,-0.127 v -0.0921 h -0.009 c -0.0892,0.10477 -0.24483,0.25082 -0.49248,0.25082 -0.32738,0 -0.48895,-0.21625 -0.48895,-0.47978 0,-0.3175 0.2286,-0.48895 0.52388,-0.48895 h 0.45085 v -0.18097 c 0,-0.21908 -0.0505,-0.40041 -0.35243,-0.40041 -0.0984,0 -0.19403,0.0254 -0.27023,0.048 l -0.0445,0.0413 v 0.26352 h -0.2032 v -0.4258 c 0.13335,-0.0476 0.33373,-0.11077 0.59726,-0.11077 0.42862,0 0.56197,0.24447 0.56197,0.53975 v 0.95603 l 0.0445,0.0508 h 0.21308 z m -0.54645,-0.3877 v -0.36195 h -0.37783 c -0.18097,0 -0.3048,0.073 -0.3048,0.2921 0,0.16228 0.0571,0.26705 0.29492,0.26705 0.13688,0 0.27341,-0.0825 0.38771,-0.1972" style="fill:#7b7979;fill-opacity:1;fill-rule:nonzero;stroke:none;stroke-width:0.35277778" id="path397" inkscape:connector-curvature="0"/>
      <path d="m 305.5693,166.80496 c -0.10477,0 -0.13017,-0.054 -0.13017,-0.127 v -0.0889 h -0.006 c -0.0889,0.10795 -0.26035,0.24765 -0.4699,0.24765 -0.3429,0 -0.6223,-0.2667 -0.6223,-0.84772 0,-0.56868 0.28892,-0.88618 0.68897,-0.88618 0.16828,0 0.29845,0.0663 0.39053,0.13652 v -0.54328 l -0.0444,-0.0445 h -0.21273 v -0.1651 h 0.41592 c 0.1016,0 0.13018,0.054 0.13018,0.12383 v 1.99143 l 0.0476,0.0476 h 0.20991 v 0.15557 z m -0.14922,-0.39052 v -0.95603 c -0.073,-0.0762 -0.1905,-0.16193 -0.35596,-0.16193 -0.25364,0 -0.41874,0.21908 -0.41874,0.68933 0,0.44133 0.13934,0.63183 0.39052,0.63183 0.13653,0 0.26035,-0.067 0.38418,-0.2032" style="fill:#7b7979;fill-opacity:1;fill-rule:nonzero;stroke:none;stroke-width:0.35277778" id="path401" inkscape:connector-curvature="0"/>
      <path d="m 307.57607,166.04599 h -1.00683 c 0.019,0.42227 0.22225,0.60007 0.54963,0.60007 0.1778,0 0.32703,-0.0445 0.41275,-0.0825 v 0.16546 c -0.10795,0.06 -0.2667,0.10759 -0.50518,0.10759 -0.42545,0 -0.75565,-0.254 -0.75565,-0.84772 0,-0.6036 0.32421,-0.88618 0.71473,-0.88618 0.34925,0 0.635,0.23813 0.635,0.68298 v 0.21908 z m -1.00683,-0.18732 h 0.75918 v -0.0924 c 0,-0.33302 -0.14605,-0.4826 -0.34925,-0.4826 -0.22895,0 -0.38417,0.18732 -0.40993,0.57503" style="fill:#7b7979;fill-opacity:1;fill-rule:nonzero;stroke:none;stroke-width:0.35277778" id="path405" inkscape:connector-curvature="0"/>
    </g>
  </g>
</svg>