<?xml version="1.0" standalone="no"?>
<!DOCTYPE svg PUBLIC "-//W3C//DTD SVG 20010904//EN"
 "http://www.w3.org/TR/2001/REC-SVG-20010904/DTD/svg10.dtd">
<svg version="1.0" xmlns="http://www.w3.org/2000/svg"
 width="844.000000pt" height="135.000000pt" viewBox="0 0 844.000000 135.000000"
 preserveAspectRatio="xMidYMid meet">

<g transform="translate(0.000000,135.000000) scale(0.100000,-0.100000)"
fill="#000000" stroke="none">
<path d="M7520 1238 c-85 -24 -135 -93 -146 -202 l-7 -66 -48 0 -49 0 0 -65 0
-65 50 0 50 0 0 -230 0 -230 80 0 80 0 0 230 0 231 113 -3 112 -3 5 -170 c4
-148 8 -175 26 -205 42 -72 130 -103 233 -82 30 6 55 13 57 15 2 2 -6 33 -16
69 l-20 66 -43 -5 c-39 -5 -46 -2 -66 23 -20 25 -21 37 -19 158 l3 131 73 3
73 3 -3 62 -3 62 -72 3 -73 3 0 89 0 90 -75 0 -75 0 0 -90 0 -90 -115 0 -115
0 0 43 c0 55 30 87 82 87 32 0 36 3 42 31 11 58 7 106 -10 113 -22 9 -83 6
-124 -6z"/>
<path d="M615 1221 c-50 -23 -83 -58 -95 -102 -15 -52 -13 -391 3 -413 10 -14
26 -16 97 -14 l85 3 3 183 c1 110 6 182 12 182 17 0 830 -410 830 -418 0 -4
-12 -13 -27 -19 -184 -72 -991 -408 -1000 -415 -7 -6 -13 -17 -13 -24 0 -19
69 -114 83 -115 25 -3 48 6 331 123 160 66 390 161 511 210 263 108 287 120
314 154 24 30 36 83 27 118 -15 61 -49 81 -536 326 -446 223 -483 240 -532
240 -30 0 -70 -8 -93 -19z"/>
<path d="M2690 1232 c-6 -2 -10 -152 -10 -423 l0 -419 270 0 270 0 0 70 0 70
-195 0 -195 0 0 105 0 105 175 0 175 0 0 70 0 70 -172 2 -173 3 0 104 0 104
185 3 c102 2 189 4 193 4 4 0 7 29 5 65 l-3 66 -258 2 c-141 1 -262 1 -267 -1z"/>
<path d="M4600 810 l0 -430 80 0 80 0 0 430 0 430 -80 0 -80 0 0 -430z"/>
<path d="M3378 1053 l-3 -88 -52 -3 -53 -3 0 -60 0 -59 55 0 55 0 0 -163 c0
-152 2 -167 23 -207 32 -60 89 -90 173 -90 35 0 74 5 87 11 l24 11 -17 56
c-17 53 -20 57 -46 54 -86 -10 -104 23 -104 198 l0 130 75 0 75 0 0 60 0 59
-72 3 -73 3 -3 88 -3 87 -69 0 -69 0 -3 -87z"/>
<path d="M6217 976 c-161 -47 -199 -214 -69 -303 18 -12 74 -31 125 -43 108
-25 137 -41 137 -75 0 -33 -35 -55 -88 -55 -51 0 -93 20 -120 57 l-20 27 -59
-23 c-32 -13 -62 -27 -66 -31 -12 -10 15 -59 50 -92 81 -78 237 -98 346 -44
77 37 112 89 112 161 -1 100 -65 155 -219 190 -88 20 -126 40 -126 65 0 56
125 67 179 16 l28 -27 59 24 c32 14 60 30 62 36 7 20 -81 98 -123 110 -65 19
-156 22 -208 7z"/>
<path d="M6838 976 c-138 -40 -219 -150 -220 -300 -1 -128 60 -229 170 -283
50 -24 68 -28 142 -27 100 1 160 24 223 87 62 62 82 116 82 222 0 103 -21 161
-83 222 -74 74 -211 108 -314 79z m172 -159 c49 -32 73 -79 73 -141 0 -87 -44
-146 -124 -167 -43 -11 -50 -10 -95 12 -87 43 -118 142 -73 235 27 57 70 84
135 84 37 0 61 -6 84 -23z"/>
<path d="M3910 967 c-61 -21 -100 -50 -120 -92 -51 -105 6 -196 147 -231 139
-35 160 -43 170 -66 16 -36 -1 -65 -46 -79 -57 -17 -106 -4 -149 39 l-37 38
-62 -25 c-62 -24 -62 -24 -48 -50 21 -40 62 -79 108 -104 36 -19 57 -22 142
-22 69 1 108 5 125 15 113 66 148 155 96 244 -27 46 -77 78 -151 95 -150 35
-184 55 -169 96 8 21 56 45 89 45 30 0 100 -33 112 -53 6 -11 21 -8 72 14 l63
26 -37 41 c-64 72 -203 103 -305 69z"/>
<path d="M4870 905 l0 -65 145 0 c80 0 145 -3 145 -7 -1 -5 -66 -78 -145 -163
l-144 -155 -1 -67 0 -68 245 0 245 0 0 65 0 64 -151 3 -152 3 152 163 151 162
0 65 0 65 -245 0 -245 0 0 -65z"/>
<path d="M5390 966 c0 -2 54 -124 120 -272 66 -147 120 -276 120 -285 0 -9
-27 -76 -60 -148 -33 -73 -60 -134 -60 -137 0 -3 37 -4 82 -2 l83 3 182 415
c100 228 182 419 182 423 1 4 -38 6 -85 5 l-86 -3 -71 -177 c-39 -98 -73 -178
-77 -178 -3 0 -39 81 -80 180 l-74 180 -88 0 c-48 0 -88 -2 -88 -4z"/>
</g>
</svg>
