<?xml version="1.0" standalone="no"?>
<!DOCTYPE svg PUBLIC "-//W3C//DTD SVG 20010904//EN"
 "http://www.w3.org/TR/2001/REC-SVG-20010904/DTD/svg10.dtd">
<svg version="1.0" xmlns="http://www.w3.org/2000/svg"
 width="200.000000pt" height="200.000000pt" viewBox="0 0 200.000000 200.000000"
 preserveAspectRatio="xMidYMid meet">

<g transform="translate(0.000000,200.000000) scale(0.100000,-0.100000)"
fill="#000000" stroke="none">
<path d="M950 1568 c-14 -6 -51 -14 -84 -18 -45 -6 -65 -15 -90 -39 -26 -26
-40 -31 -79 -31 -37 0 -53 -6 -81 -30 -19 -17 -49 -35 -68 -42 -47 -15 -77
-46 -89 -90 -7 -29 -20 -45 -52 -65 -53 -33 -64 -48 -72 -98 -4 -22 -18 -57
-32 -78 -23 -33 -25 -44 -19 -92 6 -53 5 -55 -24 -70 -53 -28 -99 -75 -106
-110 -11 -63 40 -123 174 -204 215 -129 457 -189 721 -178 248 10 463 76 656
201 95 62 137 110 138 160 1 46 -23 79 -88 121 -48 31 -54 38 -45 54 17 32 11
76 -14 114 -14 20 -28 53 -32 74 -9 53 -28 80 -74 103 -32 16 -41 28 -51 63
-14 55 -24 65 -84 94 -27 13 -65 35 -84 48 -23 17 -47 25 -76 25 -30 0 -47 6
-61 21 -28 31 -68 49 -107 49 -19 0 -51 7 -70 15 -42 17 -72 18 -107 3z m100
-53 c14 -8 42 -14 64 -15 30 0 47 -8 77 -35 33 -30 46 -35 87 -35 38 0 53 -5
71 -24 13 -14 37 -30 54 -36 68 -25 77 -33 88 -74 11 -42 44 -86 64 -86 26 0
47 -29 56 -74 5 -26 20 -61 34 -78 26 -31 31 -53 16 -76 -5 -9 -20 7 -49 55
-53 90 -144 196 -217 256 -75 61 -201 122 -283 138 -86 16 -231 6 -310 -21
-159 -56 -325 -206 -429 -387 -16 -29 -33 -50 -36 -46 -15 14 -6 57 18 85 17
20 25 42 25 68 0 40 13 56 78 92 23 12 34 28 42 60 15 55 23 64 68 79 20 6 52
25 70 40 26 23 42 29 82 29 42 0 52 4 81 35 29 31 39 35 84 35 28 0 58 7 69
15 25 19 63 19 96 0z m126 -161 c150 -59 267 -162 382 -336 59 -90 76 -109
140 -151 79 -52 88 -64 78 -102 -12 -48 -195 -152 -369 -210 -267 -88 -558
-88 -827 1 -130 43 -271 116 -327 169 -60 58 -52 84 45 143 66 40 78 53 146
155 125 190 266 305 431 352 78 23 216 13 301 -21z"/>
<path d="M683 1168 c-26 -13 -40 -45 -25 -60 7 -7 23 -6 52 6 22 9 50 16 61
16 15 0 20 5 17 23 -2 18 -10 22 -43 24 -22 1 -50 -3 -62 -9z"/>
<path d="M1203 1165 c-8 -21 -2 -25 63 -47 60 -20 84 -18 84 7 0 40 -133 76
-147 40z"/>
<path d="M651 1004 c-36 -26 -54 -79 -41 -120 37 -110 191 -93 207 23 5 39 2
46 -30 78 -28 28 -43 35 -74 35 -21 0 -49 -7 -62 -16z m80 -14 c37 -20 18 -80
-26 -80 -43 0 -58 39 -28 72 19 21 27 22 54 8z m59 -115 c0 -8 -7 -15 -15 -15
-8 0 -15 7 -15 15 0 8 7 15 15 15 8 0 15 -7 15 -15z"/>
<path d="M1217 1000 c-36 -29 -50 -83 -33 -125 18 -43 52 -65 99 -65 31 0 46
7 73 34 49 49 45 114 -10 158 -30 25 -97 23 -129 -2z m83 -29 c7 -15 6 -24 -6
-36 -9 -9 -21 -14 -27 -12 -18 6 -31 33 -24 51 9 22 44 20 57 -3z m59 -107
c-9 -11 -15 -12 -25 -3 -11 9 -12 15 -3 25 9 11 15 12 25 3 11 -9 12 -15 3
-25z"/>
<path d="M901 842 c-12 -22 10 -77 38 -91 65 -35 165 11 159 73 -2 25 -7 31
-28 31 -17 0 -26 -7 -30 -25 -5 -21 -12 -25 -40 -25 -28 0 -37 5 -48 28 -15
31 -37 35 -51 9z"/>
</g>
</svg>
