<?xml version="1.0" standalone="no"?>
<!DOCTYPE svg PUBLIC "-//W3C//DTD SVG 20010904//EN"
 "http://www.w3.org/TR/2001/REC-SVG-20010904/DTD/svg10.dtd">
<svg version="1.0" xmlns="http://www.w3.org/2000/svg"
 width="736.000000pt" height="414.000000pt" viewBox="0 0 736.000000 414.000000"
 preserveAspectRatio="xMidYMid meet">

<g transform="translate(0.000000,414.000000) scale(0.100000,-0.100000)"
fill="#000000" stroke="none">
<path d="M1375 2766 c-152 -29 -272 -95 -383 -211 -134 -139 -196 -293 -195
-485 0 -125 18 -202 75 -320 34 -70 57 -101 132 -176 75 -75 106 -98 176 -132
120 -57 195 -75 320 -75 326 -1 604 215 687 533 23 87 23 253 0 340 -23 87
-86 212 -142 282 -83 103 -232 197 -370 233 -86 22 -217 27 -300 11z m-115
-701 l0 -375 -95 0 -95 0 0 375 0 375 95 0 95 0 0 -375z m460 370 c0 -4 -96
-301 -206 -637 l-36 -108 -100 0 c-98 0 -99 0 -93 23 20 67 228 713 232 720 4
7 203 10 203 2z m210 -370 l0 -375 -95 0 -95 0 0 375 0 375 95 0 95 0 0 -375z"/>
<path d="M4320 2615 l0 -85 95 0 95 0 0 85 0 85 -95 0 -95 0 0 -85z"/>
<path d="M5997 2693 c-9 -8 -9 -235 0 -665 l6 -338 279 0 278 0 0 85 0 85
-185 0 -185 0 0 420 0 420 -93 0 c-52 0 -97 -3 -100 -7z"/>
<path d="M4560 2610 l0 -80 120 0 120 0 0 -420 0 -420 95 0 95 0 0 420 0 420
120 0 120 0 0 80 0 80 -335 0 -335 0 0 -80z"/>
<path d="M5395 2678 c-3 -7 -76 -224 -164 -483 -88 -259 -163 -478 -166 -487
-7 -16 2 -18 98 -18 l106 0 26 88 c14 48 29 95 31 105 5 16 20 17 177 15 l171
-3 32 -100 31 -100 102 -3 c72 -2 101 1 101 9 0 6 -74 230 -165 496 -91 267
-165 487 -165 489 0 2 -47 4 -105 4 -75 0 -107 -4 -110 -12z m165 -398 c28
-96 54 -183 56 -192 5 -16 -5 -18 -110 -18 -74 0 -116 4 -116 10 0 13 113 381
116 377 1 -1 25 -81 54 -177z"/>
<path d="M3106 2435 c-33 -13 -77 -41 -98 -62 -84 -82 -128 -233 -108 -372 21
-152 76 -238 186 -292 56 -28 77 -33 142 -33 101 0 179 25 239 78 46 41 93
122 93 164 0 21 -3 22 -88 22 l-87 0 -20 -41 c-36 -75 -118 -99 -201 -59 -49
24 -74 68 -74 129 l0 41 241 0 241 0 -4 98 c-3 79 -9 108 -32 159 -74 163
-263 237 -430 168z m206 -142 c36 -18 59 -53 65 -103 l6 -40 -147 0 -146 0 0
30 c0 106 118 166 222 113z"/>
<path d="M3835 2442 c-70 -23 -154 -108 -185 -187 -21 -51 -24 -78 -25 -185 0
-146 15 -203 74 -278 122 -153 408 -154 518 -1 30 43 66 145 56 162 -2 4 -44
7 -92 7 l-87 0 -15 -47 c-17 -58 -52 -84 -116 -90 -36 -3 -56 1 -80 16 -58 36
-68 62 -72 194 -4 148 3 199 35 237 67 79 211 50 230 -48 l7 -32 94 0 95 0 -7
38 c-25 142 -146 233 -308 231 -40 0 -94 -8 -122 -17z"/>
<path d="M4327 2444 c-4 -4 -7 -175 -7 -381 l0 -373 95 0 95 0 -2 378 -3 377
-85 3 c-47 1 -89 0 -93 -4z"/>
<path d="M2482 2068 l3 -373 93 -3 92 -3 0 306 0 305 120 0 120 0 0 70 0 70
-215 0 -215 0 2 -372z"/>
</g>
</svg>
