<?xml version="1.0" standalone="no"?>
<!DOCTYPE svg PUBLIC "-//W3C//DTD SVG 20010904//EN"
 "http://www.w3.org/TR/2001/REC-SVG-20010904/DTD/svg10.dtd">
<svg version="1.0" xmlns="http://www.w3.org/2000/svg"
 width="1500.000000pt" height="1500.000000pt" viewBox="0 0 1500.000000 1500.000000"
 preserveAspectRatio="xMidYMid meet">

<g transform="translate(0.000000,1500.000000) scale(0.100000,-0.100000)"
fill="#000000" stroke="none">
<path d="M4590 8998 c0 -213 -1 -221 -18 -205 -30 28 -132 58 -214 64 -126 9
-248 -21 -347 -87 -121 -80 -194 -179 -242 -325 -30 -92 -32 -248 -5 -350 56
-213 216 -366 429 -411 80 -17 176 -18 232 -3 48 12 159 63 196 90 15 10 29
19 32 19 3 0 13 -20 23 -45 9 -25 19 -45 23 -45 3 0 15 21 25 48 11 26 22 49
25 52 6 5 15 22 74 132 25 49 35 59 64 64 18 3 44 4 58 2 23 -5 25 -2 25 31 1
36 1 36 24 -20 34 -80 52 -107 123 -176 109 -106 231 -153 403 -153 187 0 324
53 440 168 36 37 73 78 81 91 l15 24 27 -54 c72 -148 230 -229 447 -229 215 0
388 91 451 236 l20 48 18 -30 c48 -76 154 -164 243 -203 116 -49 294 -65 417
-36 135 32 265 123 341 239 l42 66 31 -47 c54 -87 101 -136 174 -183 172 -113
419 -121 586 -20 34 21 65 36 68 34 4 -2 10 -16 14 -31 3 -15 12 -31 18 -35 7
-4 74 -8 150 -8 l137 0 0 555 0 555 -141 0 -140 0 -16 -37 c-8 -21 -16 -39
-18 -41 -1 -1 -33 16 -71 38 -87 50 -166 70 -274 70 -203 0 -383 -96 -478
-256 l-39 -64 -36 57 c-74 120 -190 205 -330 243 -70 19 -99 22 -202 17 -124
-5 -184 -20 -295 -77 -54 -27 -181 -154 -199 -198 l-14 -33 -17 50 c-40 112
-122 192 -240 233 -57 20 -84 23 -215 23 -138 0 -155 -2 -210 -26 -124 -53
-199 -123 -227 -211 -6 -21 -14 -38 -17 -38 -3 0 -17 19 -31 41 -61 100 -223
204 -357 230 -91 17 -273 7 -346 -20 -138 -49 -246 -141 -314 -268 l-43 -78 0
373 0 372 -190 0 -190 0 0 -222z m2007 -433 c12 -8 27 -31 33 -50 l12 -35 158
0 158 0 -14 -47 c-8 -25 -14 -59 -14 -74 0 -57 -6 -59 -78 -22 -47 24 -108 42
-207 63 -77 16 -155 34 -173 40 -56 21 -69 74 -27 115 19 20 34 25 77 25 31 0
62 -6 75 -15z m-942 -38 c36 -20 105 -104 105 -128 0 -5 -99 -9 -220 -9 -121
0 -220 2 -220 5 0 13 34 72 54 93 22 25 63 49 106 63 39 13 131 0 175 -24z
m-1175 -32 c113 -57 167 -193 125 -316 -35 -102 -122 -163 -229 -162 -146 1
-246 103 -246 248 1 105 51 186 145 232 41 20 61 23 110 20 34 -2 76 -12 95
-22z m4268 -4 c50 -25 109 -93 122 -140 26 -93 2 -201 -58 -264 -46 -49 -93
-67 -175 -67 -65 0 -79 4 -127 33 -79 48 -115 116 -115 217 0 64 5 83 28 122
67 114 210 158 325 99z m-1147 7 c49 -14 112 -67 129 -108 l12 -30 137 0 136
0 -2 -87 -2 -88 -133 -3 -133 -3 -24 -44 c-68 -128 -231 -154 -344 -55 -37 33
-48 50 -62 105 -56 206 94 371 286 313z m-1415 -268 c58 -36 143 -65 254 -85
47 -9 101 -21 120 -27 82 -25 104 -86 49 -132 -65 -55 -177 -22 -197 57 l-8
32 -175 6 c-96 4 -243 7 -328 8 l-154 1 -39 -36 c-22 -20 -57 -43 -77 -52 -46
-19 -146 -20 -191 0 -60 26 -113 91 -121 148 l-4 25 390 2 c215 2 398 3 408 3
13 0 17 9 17 40 0 22 2 40 5 40 2 0 25 -13 51 -30z"/>
<path d="M10310 9120 c-29 -36 -303 -325 -311 -328 -5 -2 -9 4 -9 13 0 16 -11
17 -112 13 -129 -5 -179 -22 -246 -83 l-41 -36 -31 60 -30 61 -125 0 -125 0 0
-555 0 -555 188 2 187 3 5 332 c5 317 6 333 26 360 39 52 75 65 195 71 95 4
109 7 109 22 0 19 26 34 41 24 5 -3 9 -111 9 -242 0 -261 9 -321 58 -401 38
-62 116 -123 187 -146 50 -16 89 -20 230 -20 l170 0 3 102 3 102 67 -67 c112
-113 255 -171 419 -172 180 0 316 52 429 165 39 38 77 81 85 94 l15 24 27 -54
c47 -96 139 -171 253 -206 75 -23 294 -25 369 -4 128 36 226 112 274 211 23
48 26 68 26 155 0 89 -3 106 -27 151 -48 92 -128 140 -289 174 -182 39 -227
52 -248 71 -28 26 -27 64 4 94 19 20 34 25 77 25 64 0 94 -18 106 -63 l8 -32
179 -3 178 -2 -7 46 c-20 146 -123 256 -284 304 -64 20 -90 22 -205 18 -147
-5 -199 -20 -294 -83 -54 -36 -116 -117 -129 -167 -7 -33 -20 -36 -29 -7 -12
38 -140 156 -203 188 -108 55 -141 63 -272 68 -147 6 -213 -7 -328 -64 -50
-26 -92 -57 -137 -104 -36 -37 -66 -65 -66 -63 -5 17 -7 35 -8 114 l-1 90
-135 0 -135 0 0 160 0 160 -42 0 c-30 -1 -48 -7 -58 -20z m990 -593 c30 -15
56 -38 78 -71 17 -26 32 -52 32 -57 0 -5 -99 -9 -220 -9 -121 0 -220 2 -220 5
0 4 7 20 16 38 59 116 187 154 314 94z m-660 -5 c0 -5 -10 -35 -22 -68 -19
-50 -22 -79 -22 -189 0 -97 5 -141 17 -174 l17 -43 -76 4 c-71 3 -78 6 -105
36 l-29 32 0 198 c0 109 3 202 7 205 9 10 213 8 213 -1z m1181 -281 c57 -44
124 -68 269 -96 115 -22 151 -34 178 -58 52 -47 2 -127 -80 -127 -74 0 -107
26 -131 101 -4 13 -37 17 -224 22 -120 4 -269 7 -330 7 l-113 0 -27 -31 c-74
-83 -225 -99 -313 -34 -35 26 -77 90 -82 127 l-3 23 405 2 405 2 3 41 c4 45 9
48 43 21z"/>
<path d="M5450 7659 c0 -5 5 -7 10 -4 6 3 10 8 10 11 0 2 -4 4 -10 4 -5 0 -10
-5 -10 -11z"/>
<path d="M5407 7587 c-11 -29 -9 -43 4 -30 6 6 9 19 7 29 -3 18 -4 18 -11 1z"/>
<path d="M5691 7384 c-60 -16 -104 -40 -168 -91 -23 -18 -44 -33 -46 -33 -3 0
-17 25 -31 55 l-25 55 -108 1 c-59 0 -117 2 -128 4 -11 2 -23 -1 -27 -8 -4 -6
-7 -258 -7 -559 l-1 -548 201 0 201 0 -7 338 c-7 302 -6 341 9 377 33 78 91
113 167 100 32 -6 45 -15 67 -48 l27 -40 3 -298 4 -297 -23 -16 -23 -16 32 -6
c18 -4 35 -10 37 -15 3 -4 -4 -6 -15 -4 -11 2 -20 0 -20 -6 0 -5 6 -9 13 -9 8
0 22 -9 33 -21 15 -16 16 -21 4 -19 -29 4 -143 0 -138 -5 3 -3 107 -8 231 -12
l226 -6 3 349 c3 317 5 352 22 387 24 48 67 79 119 84 49 4 81 -10 111 -50 20
-27 21 -43 26 -395 l5 -367 188 -3 187 -2 0 157 1 158 32 -60 c45 -84 147
-184 227 -224 94 -45 162 -61 271 -61 110 0 175 16 268 67 61 33 66 34 78 17
7 -10 13 -24 13 -31 0 -20 35 -24 170 -21 l125 3 3 553 2 552 -141 0 -141 0
-15 -40 c-17 -43 -27 -48 -52 -26 -30 26 -116 65 -181 82 -75 19 -225 14 -301
-10 -143 -45 -265 -144 -329 -268 l-34 -66 -14 51 c-21 85 -52 139 -117 202
-66 66 -123 92 -219 102 -114 12 -251 -37 -333 -117 l-39 -39 -44 46 c-97 98
-239 135 -379 97z m1874 -362 c76 -53 111 -134 102 -233 -9 -105 -64 -175
-163 -210 -215 -76 -399 151 -292 360 63 121 239 163 353 83z"/>
<path d="M9435 7390 c-125 -26 -221 -87 -278 -179 l-22 -36 -3 98 -3 97 -187
-2 -187 -3 -2 -339 c-2 -307 -4 -342 -21 -374 -26 -50 -62 -74 -122 -80 -65
-6 -117 16 -150 65 l-25 36 -3 349 -3 348 -189 0 -190 0 0 -332 c0 -183 5
-362 10 -398 13 -78 64 -189 113 -245 47 -54 100 -90 189 -127 64 -27 87 -31
197 -36 146 -5 206 5 308 55 82 40 178 133 209 202 10 23 21 41 24 41 4 0 12
-19 19 -42 18 -60 81 -140 140 -177 155 -100 422 -111 596 -26 50 25 133 95
152 128 8 16 17 11 79 -50 57 -58 82 -74 144 -98 66 -25 92 -29 210 -32 123
-4 142 -3 212 20 194 62 288 178 288 356 0 127 -39 205 -129 262 -55 36 -107
52 -268 84 -140 28 -178 44 -187 80 -13 53 28 94 94 95 59 0 106 -28 115 -69
l7 -31 175 0 176 0 -6 48 c-18 149 -141 271 -312 308 -80 18 -226 17 -303 -1
-123 -29 -223 -98 -269 -186 l-19 -37 -24 45 c-42 80 -146 151 -262 178 -67
16 -227 18 -293 5z m205 -275 c17 -9 33 -28 40 -50 l12 -35 148 0 148 0 7 -47
c14 -98 74 -182 164 -228 43 -21 154 -51 283 -75 113 -22 161 -88 104 -145
-21 -21 -35 -25 -80 -25 -65 0 -112 32 -121 83 l-6 32 -137 0 -136 0 -11 55
c-34 164 -136 231 -424 281 -149 25 -198 76 -136 143 19 21 33 26 70 26 25 0
59 -7 75 -15z m-436 -308 c58 -55 137 -86 303 -117 104 -19 133 -30 166 -58
22 -20 22 -64 -1 -92 -25 -31 -114 -40 -160 -16 -18 9 -32 18 -32 19 0 1 -6
19 -14 40 l-13 39 -150 -1 c-82 -1 -156 1 -164 4 -11 4 -13 29 -11 138 l3 132
22 -30 c12 -16 35 -43 51 -58z"/>
<path d="M5288 7383 c7 -3 16 -2 19 1 4 3 -2 6 -13 5 -11 0 -14 -3 -6 -6z"/>
<path d="M11862 6935 c-55 -48 -14 -145 61 -145 52 0 71 9 95 44 29 42 28 55
-7 93 -25 28 -36 32 -76 31 -33 0 -55 -7 -73 -23z"/>
<path d="M11872 6723 l-22 -4 0 -255 1 -254 85 0 84 0 0 255 0 255 -49 0 c-27
0 -55 2 -63 4 -7 2 -23 1 -36 -1z"/>
<path d="M11470 6710 c0 -6 5 -10 11 -10 5 0 7 -4 4 -10 -3 -5 -1 -10 4 -10
17 0 13 27 -4 34 -8 3 -15 1 -15 -4z"/>
<path d="M11571 6704 c0 -11 3 -14 6 -6 3 7 2 16 -1 19 -3 4 -6 -2 -5 -13z"/>
<path d="M11597 6707 c-4 -10 9 -11 54 -7 56 5 59 4 59 -16 0 -50 -12 -83 -33
-86 -29 -4 -42 -56 -20 -80 18 -21 20 -31 24 -143 3 -78 3 -77 9 35 l6 115 3
-125 c2 -69 5 -135 6 -147 3 -26 -36 -39 -86 -28 -23 5 -30 4 -24 -5 5 -7 28
-10 69 -7 l61 4 3 251 2 252 -64 0 c-43 0 -65 -4 -69 -13z"/>
<path d="M11521 6664 c0 -11 3 -14 6 -6 3 7 2 16 -1 19 -3 4 -6 -2 -5 -13z"/>
<path d="M11600 6660 c0 -11 68 -25 77 -16 4 3 -7 7 -23 7 -28 2 -28 2 6 9 34
7 34 7 -12 9 -27 0 -48 -3 -48 -9z"/>
<path d="M11545 6650 c-3 -5 -1 -10 4 -10 6 0 11 5 11 10 0 6 -2 10 -4 10 -3
0 -8 -4 -11 -10z"/>
<path d="M11496 6585 c10 -8 24 -14 29 -14 6 0 1 6 -9 14 -11 8 -24 15 -30 15
-5 0 -1 -7 10 -15z"/>
<path d="M5600 6570 c0 -5 5 -10 11 -10 5 0 7 5 4 10 -3 6 -8 10 -11 10 -2 0
-4 -4 -4 -10z"/>
<path d="M11547 6564 c-3 -4 -1 -16 5 -28 6 -11 12 -45 13 -75 0 -35 5 -55 13
-57 7 -1 8 0 3 2 -5 3 -4 17 2 35 9 22 9 34 -1 49 -6 11 -12 28 -12 37 0 23
-14 45 -23 37z"/>
<path d="M5695 6480 c10 -11 20 -20 23 -20 3 0 -3 9 -13 20 -10 11 -20 20 -23
20 -3 0 3 -9 13 -20z"/>
<path d="M5775 6401 c-3 -5 -1 -12 5 -16 5 -3 10 1 10 9 0 18 -6 21 -15 7z"/>
<path d="M11540 6386 c0 -8 -8 -17 -17 -19 -14 -4 -12 -5 5 -6 12 0 22 1 22 3
0 2 3 11 6 20 3 9 1 16 -5 16 -6 0 -11 -6 -11 -14z"/>
<path d="M11602 6280 c-17 -28 -7 -40 33 -40 49 0 68 9 54 26 -6 8 -20 14 -30
14 -11 0 -19 5 -19 10 0 18 -25 11 -38 -10z m61 -27 c-13 -2 -33 -2 -45 0 -13
2 -3 4 22 4 25 0 35 -2 23 -4z"/>
<path d="M11525 6270 c-3 -6 1 -7 9 -4 18 7 21 14 7 14 -6 0 -13 -4 -16 -10z"/>
<path d="M11560 6246 c0 -14 4 -27 8 -30 5 -3 9 8 9 24 0 17 -4 30 -9 30 -4 0
-8 -11 -8 -24z"/>
<path d="M11446 6221 c-4 -5 3 -7 14 -4 23 6 26 13 6 13 -8 0 -17 -4 -20 -9z"/>
<path d="M6240 5815 l0 -76 -28 21 c-64 48 -166 27 -207 -42 -27 -45 -26 -132
1 -178 38 -66 124 -91 193 -55 37 19 46 19 46 3 0 -7 12 -14 28 -16 l27 -3 0
210 0 211 -30 0 -30 0 0 -75z m-29 -104 c23 -24 29 -38 29 -75 0 -58 -17 -94
-51 -112 -36 -18 -63 -18 -100 1 -35 19 -49 50 -49 111 0 63 40 104 100 104
33 0 48 -6 71 -29z"/>
<path d="M8680 5814 l0 -75 -26 20 c-60 47 -160 32 -206 -31 -32 -45 -33 -153
-2 -194 35 -47 67 -66 117 -66 47 0 74 10 101 38 15 14 16 13 16 -10 0 -21 5
-26 24 -26 l25 0 3 148 c2 81 2 175 0 210 -3 58 -4 62 -27 62 -24 0 -25 -2
-25 -76z m-34 -97 c22 -19 28 -34 32 -80 4 -54 3 -58 -32 -93 -33 -33 -40 -36
-78 -31 -60 8 -91 43 -92 105 -2 83 31 120 106 121 25 1 46 -7 64 -22z"/>
<path d="M3610 5857 c-34 -17 -63 -79 -55 -116 9 -41 40 -65 118 -91 78 -25
103 -52 88 -93 -24 -62 -116 -65 -147 -6 -10 20 -22 29 -39 29 -28 0 -30 -6
-15 -44 14 -39 66 -66 125 -66 92 0 148 60 129 138 -10 40 -28 53 -139 94 -57
22 -60 25 -63 60 -2 28 2 40 20 52 36 25 76 20 108 -14 31 -33 70 -40 70 -12
-1 21 -28 56 -57 71 -29 15 -112 14 -143 -2z"/>
<path d="M7360 5670 l0 -200 25 0 c25 0 25 1 25 80 l0 80 33 0 c30 0 35 -6 77
-80 39 -70 49 -80 73 -80 15 0 27 3 27 8 0 4 -20 41 -44 82 l-44 75 30 14 c55
26 76 114 41 168 -25 38 -72 53 -163 53 l-80 0 0 -200z m138 151 c59 -2 93
-68 59 -115 -15 -21 -88 -39 -122 -30 -24 6 -25 10 -25 73 0 37 2 70 5 73 3 3
16 4 28 3 12 -1 37 -3 55 -4z"/>
<path d="M5089 5853 c-1 -5 -2 -21 -3 -38 -1 -20 -7 -31 -21 -35 -29 -7 -31
-38 -3 -42 22 -3 23 -7 24 -96 3 -155 12 -172 100 -172 27 0 34 4 34 20 0 14
-7 20 -21 20 -11 0 -29 5 -40 10 -17 10 -19 22 -19 115 l0 105 40 0 c33 0 40
3 40 20 0 17 -7 20 -40 20 l-40 0 0 40 c0 36 -2 40 -25 40 -14 0 -26 -3 -26
-7z"/>
<path d="M5440 5821 c0 -34 -3 -41 -20 -41 -13 0 -20 -7 -20 -20 0 -13 7 -20
19 -20 17 0 19 -10 22 -115 5 -134 11 -145 88 -153 46 -4 51 -3 51 16 0 16 -9
22 -40 27 l-40 7 0 109 0 109 40 0 c33 0 40 3 40 20 0 17 -7 20 -40 20 -31 0
-40 4 -41 18 -1 9 -2 26 -3 37 -1 14 -9 21 -28 23 -27 3 -28 1 -28 -37z"/>
<path d="M9300 5820 c0 -33 -3 -40 -20 -40 -13 0 -20 -7 -20 -20 0 -13 7 -20
19 -20 17 0 19 -10 23 -116 3 -107 5 -117 27 -135 33 -27 111 -27 111 0 0 14
-10 20 -40 25 l-40 6 0 110 0 110 40 0 c33 0 40 3 40 20 0 17 -7 20 -40 20
-42 0 -44 3 -42 58 1 18 -4 22 -28 22 -28 0 -30 -2 -30 -40z"/>
<path d="M3983 5771 c-29 -18 -33 -19 -41 -5 -5 9 -18 14 -28 12 -18 -3 -19
-15 -22 -156 l-3 -152 31 0 31 0 -1 88 c-2 131 -2 131 25 157 32 33 93 34 121
4 16 -18 20 -40 22 -135 4 -113 4 -114 28 -114 24 0 24 0 24 109 0 101 2 110
25 135 32 35 92 36 123 3 20 -21 22 -34 22 -135 l0 -112 28 0 27 0 -2 115 c-1
93 -5 122 -20 147 -37 63 -138 74 -190 22 l-25 -25 -28 26 c-39 37 -103 44
-147 16z"/>
<path d="M4565 5783 c-80 -22 -127 -133 -94 -220 36 -95 156 -129 227 -63 l22
21 0 -26 c0 -21 5 -25 28 -25 l27 0 -1 153 -1 152 -27 3 c-21 3 -26 -1 -26
-18 l0 -21 -28 21 c-30 22 -91 33 -127 23z m119 -66 c24 -20 30 -33 34 -78 4
-48 1 -59 -23 -87 -51 -61 -141 -48 -172 25 -14 35 -12 62 8 114 20 52 103 65
153 26z"/>
<path d="M4952 5770 c-39 -24 -42 -24 -42 -5 0 9 -9 15 -25 15 l-25 0 0 -155
0 -155 24 0 c23 0 24 2 28 110 4 122 11 137 69 149 27 5 33 11 33 31 0 32 -21
35 -62 10z"/>
<path d="M5703 5769 c-124 -61 -104 -261 29 -297 102 -28 198 46 198 153 0 70
-25 115 -80 143 -55 27 -93 28 -147 1z m134 -44 c28 -20 47 -83 39 -127 -14
-78 -113 -112 -170 -59 -47 44 -44 134 5 180 28 25 94 28 126 6z"/>
<path d="M6455 5776 c-59 -27 -79 -60 -83 -139 -2 -58 1 -78 17 -104 43 -69
150 -88 210 -37 l31 26 0 -26 c0 -21 5 -26 25 -26 l25 0 0 155 0 155 -25 0
c-18 0 -25 -5 -25 -19 0 -19 -2 -19 -42 4 -48 28 -88 31 -133 11z m119 -47
c29 -14 56 -64 56 -106 0 -15 -9 -43 -20 -61 -52 -86 -173 -56 -187 47 -13 99
63 160 151 120z"/>
<path d="M7784 5779 c-93 -27 -130 -162 -69 -255 52 -80 216 -71 254 14 15 32
15 32 -18 32 -20 0 -32 -6 -36 -18 -7 -23 -46 -42 -86 -42 -36 0 -89 47 -89
79 0 20 5 21 126 21 l127 0 -7 42 c-17 106 -98 157 -202 127z m121 -64 c14
-13 25 -33 25 -45 0 -19 -6 -20 -95 -20 -99 0 -105 3 -83 43 18 35 40 46 86
47 32 0 49 -6 67 -25z"/>
<path d="M8125 5776 c-58 -26 -79 -60 -83 -136 -4 -59 -1 -75 18 -106 45 -72
156 -90 216 -34 l24 23 0 -26 c0 -22 5 -27 25 -27 l25 0 0 155 0 155 -25 0
c-18 0 -25 -5 -25 -19 0 -19 -2 -19 -42 4 -48 28 -88 31 -133 11z m141 -67
c25 -26 29 -38 28 -84 0 -65 -27 -101 -82 -111 -43 -8 -94 16 -111 52 -26 57
-3 146 42 164 47 19 92 12 123 -21z"/>
<path d="M9563 5769 c-57 -28 -87 -89 -81 -160 8 -85 69 -141 152 -141 92 0
156 63 156 153 0 69 -25 117 -76 146 -49 28 -97 29 -151 2z m128 -39 c32 -18
52 -68 46 -118 -6 -56 -40 -92 -93 -99 -33 -4 -45 -1 -71 21 -58 49 -51 164
10 194 29 14 83 15 108 2z"/>
<path d="M9948 5771 c-31 -17 -38 -18 -38 -6 0 9 -9 15 -25 15 l-25 0 0 -155
0 -155 25 0 c25 0 25 0 25 94 0 136 20 175 88 176 73 0 92 -37 92 -182 0 -87
0 -88 25 -88 l25 0 0 110 c0 104 1 112 25 135 16 17 35 25 60 25 25 0 44 -8
60 -25 24 -23 25 -31 25 -135 l0 -110 25 0 25 0 0 116 c0 100 -3 121 -21 150
-38 62 -144 69 -194 14 l-18 -20 -27 25 c-37 36 -103 43 -152 16z"/>
<path d="M10510 5768 c-54 -28 -80 -73 -80 -142 0 -96 66 -162 158 -159 118 4
185 121 134 235 -15 35 -29 50 -64 67 -56 27 -93 27 -148 -1z m124 -39 c57
-26 71 -136 24 -186 -47 -50 -139 -37 -164 23 -26 61 -10 138 33 163 24 14 76
14 107 0z"/>
<path d="M10914 5780 c-12 -5 -25 -13 -29 -19 -9 -16 -25 -13 -25 4 0 9 -9 15
-25 15 l-25 0 0 -155 0 -155 25 0 25 0 0 104 c0 89 3 107 21 130 14 17 30 26
50 26 26 0 29 3 29 30 0 31 -9 35 -46 20z"/>
<path d="M11112 5770 c-39 -24 -42 -24 -42 -5 0 9 -9 15 -25 15 l-25 0 0 -155
0 -155 25 0 c25 0 25 1 25 88 0 92 11 150 32 164 7 4 25 8 41 8 23 0 27 4 27
30 0 35 -13 38 -58 10z"/>
<path d="M11315 5780 c-90 -28 -128 -146 -79 -242 46 -89 203 -95 259 -10 50
76 39 171 -26 224 -38 31 -105 43 -154 28z m126 -69 c23 -24 29 -38 29 -75 0
-58 -17 -94 -51 -112 -36 -18 -63 -18 -100 1 -35 19 -49 50 -49 111 0 63 40
104 100 104 33 0 48 -6 71 -29z"/>
<path d="M6740 5770 c0 -6 26 -76 59 -155 l58 -143 -28 -67 c-16 -37 -29 -70
-29 -74 0 -12 48 -11 53 2 3 6 34 84 70 172 36 88 72 176 80 195 31 75 32 82
2 78 -25 -3 -31 -13 -64 -103 -57 -155 -51 -154 -103 -18 -41 106 -48 118 -72
121 -14 2 -26 -2 -26 -8z"/>
<path d="M8790 5776 c0 -3 27 -72 60 -154 l59 -149 -20 -54 c-12 -30 -26 -60
-31 -67 -14 -17 3 -35 28 -30 13 2 43 66 110 231 l92 227 -27 0 c-25 0 -29 -8
-70 -115 -24 -64 -47 -118 -51 -120 -3 -2 -26 50 -51 115 -42 113 -46 120 -71
120 -16 0 -28 -2 -28 -4z"/>
<path d="M11562 5768 c3 -7 25 -77 49 -155 42 -138 45 -143 71 -143 26 0 29 5
52 83 14 45 28 94 32 110 12 50 23 39 49 -50 15 -48 30 -99 34 -113 6 -19 14
-25 36 -25 28 0 30 2 75 150 37 118 44 151 33 153 -31 8 -41 -11 -68 -117 -15
-61 -31 -114 -36 -116 -4 -3 -13 11 -18 32 -6 21 -21 75 -33 121 -23 81 -24
83 -52 80 -22 -2 -31 -10 -37 -28 -72 -246 -65 -241 -108 -76 -25 97 -27 101
-55 104 -21 3 -27 0 -24 -10z"/>
<path d="M7080 5525 c-18 -22 -8 -50 19 -50 32 0 49 28 32 49 -17 20 -35 20
-51 1z"/>
<path d="M12052 5528 c-20 -20 -14 -47 12 -54 14 -3 30 -3 35 1 24 14 4 65
-24 65 -6 0 -16 -5 -23 -12z"/>
</g>
</svg>
